STARTFONT 2.1
FONT -FreeType-DejaVu Sans Mono-Bold-R-Normal--17-120-100-100-P-87-ISO10646-1
SIZE 12 75 75
FONTBOUNDINGBOX 12 16 0 0
STARTPROPERTIES 20
FOUNDRY "FreeType"
FAMILY_NAME "DejaVu Sans Mono"
WEIGHT_NAME "Bold"
SLANT "R"
SETWIDTH_NAME "Normal"
ADD_STYLE_NAME ""
PIXEL_SIZE 17
POINT_SIZE 120
RESOLUTION_X 100
RESOLUTION_Y 100
SPACING "P"
AVERAGE_WIDTH 87
CHARSET_REGISTRY "ISO10646"
CHARSET_ENCODING "1"
FONT_ASCENT 15
FONT_DESCENT 4
COPYRIGHT "Copyright (c) 2003 by Bitstream, Inc. All Rights Reserved.  DejaVu changes are in public domain  "
_OTF_FONTFILE "DejaVuSansMono-Bold.ttf"
_OTF_PSNAME "DejaVuSansMono-Bold"
_GBDFED_INFO "Edited with gbdfed 1.6."
ENDPROPERTIES
CHARS 19
STARTCHAR 0040
ENCODING 64
SWIDTH 960 0
DWIDTH 12 0
BBX 0 0 0 0
BITMAP
ENDCHAR
STARTCHAR 0041
ENCODING 65
SWIDTH 880 0
DWIDTH 11 0
BBX 10 13 1 3
BITMAP
C300
C300
C300
C300
C300
C300
C300
C300
C300
E700
FF80
7FC0
00C0
ENDCHAR
STARTCHAR 0042
ENCODING 66
SWIDTH 960 0
DWIDTH 12 0
BBX 8 13 1 3
BITMAP
18
7E
FF
C3
C3
C3
C0
FE
FE
C0
C0
C0
C0
ENDCHAR
STARTCHAR 0043
ENCODING 67
SWIDTH 960 0
DWIDTH 12 0
BBX 10 13 0 3
BITMAP
1C00
7F00
7F00
E380
E380
E380
E380
7FC0
7FC0
1FC0
0380
0380
0380
ENDCHAR
STARTCHAR 0044
ENCODING 68
SWIDTH 960 0
DWIDTH 12 0
BBX 10 13 0 3
BITMAP
1C00
7F00
7F00
E380
E380
E380
0380
03C0
03C0
03C0
0380
0380
0380
ENDCHAR
STARTCHAR 0045
ENCODING 69
SWIDTH 960 0
DWIDTH 12 0
BBX 9 12 1 4
BITMAP
C000
C000
C000
FF80
FF80
C000
C000
C300
C300
E700
FF00
7E00
ENDCHAR
STARTCHAR 0046
ENCODING 70
SWIDTH 960 0
DWIDTH 12 0
BBX 9 13 1 3
BITMAP
1800
7E00
FF00
C300
C380
C380
0380
0300
0700
0600
CC00
FF00
FF00
ENDCHAR
STARTCHAR 0047
ENCODING 71
SWIDTH 960 0
DWIDTH 12 0
BBX 8 12 1 4
BITMAP
C0
C0
C0
FF
FF
C0
C0
C0
C0
C0
FE
FE
ENDCHAR
STARTCHAR 0048
ENCODING 72
SWIDTH 960 0
DWIDTH 12 0
BBX 8 13 1 3
BITMAP
18
7E
FF
C3
C3
C3
C0
C0
C0
C0
C0
FF
FF
ENDCHAR
STARTCHAR 0049
ENCODING 73
SWIDTH 960 0
DWIDTH 12 0
BBX 10 13 0 3
BITMAP
1C00
7F00
6380
6180
C180
C180
CFC0
CFC0
D980
D980
D980
CF80
CF00
ENDCHAR
STARTCHAR 004a
ENCODING 74
SWIDTH 960 0
DWIDTH 12 0
BBX 10 12 0 4
BITMAP
0380
0380
0380
3FC0
7FC0
6380
E380
E380
E380
E380
7F00
3E00
ENDCHAR
STARTCHAR 004b
ENCODING 75
SWIDTH 960 0
DWIDTH 12 0
BBX 8 12 1 4
BITMAP
C0
C0
C0
FE
FF
E3
C3
C3
C0
C0
C0
C0
ENDCHAR
STARTCHAR 004c
ENCODING 76
SWIDTH 960 0
DWIDTH 12 0
BBX 8 12 1 4
BITMAP
E0
E0
E0
E0
E0
E0
E0
E0
E0
E0
FF
FF
ENDCHAR
STARTCHAR 004d
ENCODING 77
SWIDTH 960 0
DWIDTH 12 0
BBX 9 12 1 4
BITMAP
C000
C000
C000
FB80
FB80
DB80
DB80
DB80
DB80
DB80
DF00
CF00
ENDCHAR
STARTCHAR 004e
ENCODING 78
SWIDTH 960 0
DWIDTH 12 0
BBX 10 13 0 3
BITMAP
0300
CFC0
DEC0
FF00
FF80
7180
61C0
61C0
61C0
61C0
71C0
3F80
3F00
ENDCHAR
STARTCHAR 004f
ENCODING 79
SWIDTH 960 0
DWIDTH 12 0
BBX 8 12 1 4
BITMAP
C0
C0
C0
C3
C3
C3
E7
7F
3F
03
03
03
ENDCHAR
STARTCHAR 0050
ENCODING 80
SWIDTH 960 0
DWIDTH 12 0
BBX 9 13 1 3
BITMAP
0E00
0700
0700
1F00
3C00
7000
E000
E000
F800
7E00
1F80
0380
0080
ENDCHAR
STARTCHAR 0051
ENCODING 81
SWIDTH 960 0
DWIDTH 12 0
BBX 9 13 1 3
BITMAP
1800
7E00
FF00
C300
C300
C380
0300
0300
FF00
FF00
CE00
FF00
FB00
ENDCHAR
STARTCHAR 0052
ENCODING 82
SWIDTH 960 0
DWIDTH 12 0
BBX 10 13 0 3
BITMAP
1C00
7F00
7F00
E380
E380
E380
0380
0380
0380
0380
0380
03C0
03C0
ENDCHAR
ENDFONT
